<svg id="visual" viewBox="0 0 900 600" width="900" height="600" xmlns="http://www.w3.org/2000/svg" xmlns:xlink="http://www.w3.org/1999/xlink" version="1.1"><path d="M0 388L21.5 393.3C43 398.7 86 409.3 128.8 417.3C171.7 425.3 214.3 430.7 257.2 431.5C300 432.3 343 428.7 385.8 419.3C428.7 410 471.3 395 514.2 386.2C557 377.3 600 374.7 642.8 382.2C685.7 389.7 728.3 407.3 771.2 404.2C814 401 857 377 878.5 365L900 353L900 601L878.5 601C857 601 814 601 771.2 601C728.3 601 685.7 601 642.8 601C600 601 557 601 514.2 601C471.3 601 428.7 601 385.8 601C343 601 300 601 257.2 601C214.3 601 171.7 601 128.8 601C86 601 43 601 21.5 601L0 601Z" fill="#5651e3"></path><path d="M0 477L21.5 465.8C43 454.7 86 432.3 128.8 422C171.7 411.7 214.3 413.3 257.2 424.8C300 436.3 343 457.7 385.8 466.2C428.7 474.7 471.3 470.3 514.2 464.3C557 458.3 600 450.7 642.8 442.8C685.7 435 728.3 427 771.2 423.3C814 419.7 857 420.3 878.5 420.7L900 421L900 601L878.5 601C857 601 814 601 771.2 601C728.3 601 685.7 601 642.8 601C600 601 557 601 514.2 601C471.3 601 428.7 601 385.8 601C343 601 300 601 257.2 601C214.3 601 171.7 601 128.8 601C86 601 43 601 21.5 601L0 601Z" fill="#6056e4"></path><path d="M0 492L21.5 486.7C43 481.3 86 470.7 128.8 469.3C171.7 468 214.3 476 257.2 473.2C300 470.3 343 456.7 385.8 456.7C428.7 456.7 471.3 470.3 514.2 475.3C557 480.3 600 476.7 642.8 473.5C685.7 470.3 728.3 467.7 771.2 468C814 468.3 857 471.7 878.5 473.3L900 475L900 601L878.5 601C857 601 814 601 771.2 601C728.3 601 685.7 601 642.8 601C600 601 557 601 514.2 601C471.3 601 428.7 601 385.8 601C343 601 300 601 257.2 601C214.3 601 171.7 601 128.8 601C86 601 43 601 21.5 601L0 601Z" fill="#695ce6"></path><path d="M0 489L21.5 497.2C43 505.3 86 521.7 128.8 521.8C171.7 522 214.3 506 257.2 498.3C300 490.7 343 491.3 385.8 494.7C428.7 498 471.3 504 514.2 505.5C557 507 600 504 642.8 507C685.7 510 728.3 519 771.2 521C814 523 857 518 878.5 515.5L900 513L900 601L878.5 601C857 601 814 601 771.2 601C728.3 601 685.7 601 642.8 601C600 601 557 601 514.2 601C471.3 601 428.7 601 385.8 601C343 601 300 601 257.2 601C214.3 601 171.7 601 128.8 601C86 601 43 601 21.5 601L0 601Z" fill="#7162e8"></path><path d="M0 567L21.5 562.5C43 558 86 549 128.8 544.7C171.7 540.3 214.3 540.7 257.2 541.5C300 542.3 343 543.7 385.8 541.8C428.7 540 471.3 535 514.2 534.5C557 534 600 538 642.8 544C685.7 550 728.3 558 771.2 556.3C814 554.7 857 543.3 878.5 537.7L900 532L900 601L878.5 601C857 601 814 601 771.2 601C728.3 601 685.7 601 642.8 601C600 601 557 601 514.2 601C471.3 601 428.7 601 385.8 601C343 601 300 601 257.2 601C214.3 601 171.7 601 128.8 601C86 601 43 601 21.5 601L0 601Z" fill="#7968e9"></path></svg>